<svg width="84" height="64" viewBox="0 0 84 64" fill="none" xmlns="http://www.w3.org/2000/svg">
<path fill-rule="evenodd" clip-rule="evenodd" d="M83.888 39C83.573 15.6025 83.713 16.9325 83.363 15.5675C82.453 12.5575 80.388 11.5775 76.8915 10.776C65.037 8.01095 39.893 9.90095 27.9335 11.021C27.9335 8.46595 27.3385 3.01295 27.4085 3.39795C26.9185 0.737954 23.1735 1.12295 22.162 0.947954C19.1976 0.525096 16.1789 0.691613 13.279 1.43795C8.34751 3.11795 8.73251 6.50945 9.78251 11.651H9.46751C8.56302 11.2833 7.59163 11.109 6.61575 11.1391C5.63987 11.1693 4.68109 11.4032 3.80101 11.826C0.89951 13.541 0.54951 16.6175 0.19951 19.939C-0.163004 24.9049 -0.0340449 29.8944 0.58451 34.835C0.501732 41.7456 0.911101 48.6534 1.80951 55.506C1.79201 56.843 2.14201 58.1625 2.82451 59.3175C5.69101 63.199 14.294 61.8375 20.3105 62.464C35.3115 63.969 48.881 62.919 63.2205 62.989C69.1985 62.989 78.7115 64.494 81.788 59.874C82.7701 57.9304 83.308 55.7929 83.363 53.616C83.965 48.7685 84.14 43.8755 83.888 39ZM12.474 5.98445C13.279 4.65445 19.4705 4.65445 21.637 4.82945C23.807 5.00445 23.982 4.02445 24.437 5.70445C24.8663 7.45445 25.1813 9.22662 25.382 11.021C18.802 11.021 23.142 10.671 11.984 11.371C11.8044 9.56063 11.9707 7.73266 12.474 5.98445ZM79.4115 52.9895C79.3448 54.5972 79.0015 56.1814 78.3965 57.6724C76.8565 59.9824 67.452 58.9675 63.2205 58.9675C34.3315 58.9675 51.4325 60.2975 9.22251 58.7225C4.78101 58.2325 5.34101 57.8475 4.81601 55.0125C3.59101 44.523 1.31601 25.2905 2.89101 17.5625C3.22748 16.8561 3.71559 16.2327 4.32057 15.7367C4.92554 15.2406 5.63248 14.8841 6.39101 14.6925C13.538 13.8665 20.741 13.5515 27.9335 13.7475C38.983 12.9075 64.477 11.3325 76.02 14.2375C80.2165 15.2875 79.7265 16.0575 79.7965 17.4575C79.8665 18.8575 79.7965 18.8925 79.7965 38.8915C80.0553 43.5922 79.9265 48.3098 79.4115 52.9895Z" fill="#040200"/>
<path fill-rule="evenodd" clip-rule="evenodd" d="M21.112 40.9213L24.612 40.6413C29.575 40.2563 28.5285 38.1913 24.612 37.9113C14.854 37.0713 17.8605 36.5848 9.99251 37.3513C8.50212 37.291 7.01468 37.529 5.61751 38.0513C5.2567 38.2375 4.96691 38.5368 4.7926 38.9035C4.61828 39.2701 4.56907 39.6838 4.6525 40.0812C4.73594 40.4785 4.94742 40.8375 5.2545 41.103C5.56159 41.3686 5.94731 41.5261 6.35251 41.5513C11.277 42.0763 16.254 41.8663 21.112 40.9213ZM20.0655 25.1853C21.8365 25.2903 23.6075 25.2903 25.3785 25.1853C25.6185 25.1605 25.8464 25.0673 26.035 24.9168C26.2236 24.7663 26.365 24.5648 26.4424 24.3362C26.5199 24.1077 26.53 23.8617 26.4717 23.6275C26.4134 23.3934 26.2891 23.1809 26.1135 23.0153C24.1413 22.4219 22.1156 22.0233 20.0655 21.8253C14.8194 21.3295 9.52897 21.6007 4.36101 22.6303C2.40101 23.4003 2.89101 25.0453 5.30601 25.5353C10.2202 26.0584 15.1816 25.9408 20.0655 25.1853ZM23.177 32.5983C28.1085 33.1933 26.6735 29.6583 24.927 30.1133C24.927 29.9383 23.842 30.1133 23.702 29.9383L20.202 29.2383C16.877 28.8883 13.5275 28.8883 10.2025 29.2383C8.61351 29.4017 7.03851 29.6583 5.47751 30.0083C3.62601 30.6383 3.87101 31.7583 5.47751 32.5633C15.414 33.5783 14.784 32.4233 23.177 32.5983ZM61.0505 18.0138C60.8291 17.802 60.5344 17.6838 60.228 17.6838C59.9216 17.6838 59.627 17.802 59.4055 18.0138C58.3555 19.0638 59.6505 20.1138 60.8055 20.8138C63.1006 21.6869 65.1863 23.0333 66.927 24.7653C68.719 26.6973 69.8565 29.1403 70.1785 31.7583C70.7181 35.5388 70.516 39.3882 69.5835 43.0913C69.1635 44.4773 68.32 45.6988 67.1685 46.5878C65.9808 47.4908 64.7232 48.2842 63.3955 48.9678C54.5475 53.5108 37.7265 48.7928 37.4115 38.9998C37.3898 35.9329 37.8263 32.8799 38.7065 29.9418C39.1618 28.3151 39.9458 26.7991 41.0102 25.4873C42.0745 24.1756 43.3965 23.096 44.8945 22.3153C50.631 19.3788 55.0025 20.8103 55.804 20.0753C55.9533 19.9331 56.0558 19.7486 56.0977 19.5467C56.1396 19.3447 56.1189 19.1348 56.0385 18.9448C55.9832 18.8185 55.9035 18.7044 55.804 18.6088C55.314 17.5938 50.736 18.0138 50.456 18.0138C48.0642 18.1285 45.7239 18.749 43.5894 19.8344C41.4549 20.9197 39.5748 22.4452 38.073 24.3103C36.1715 27.0235 34.9058 30.1303 34.37 33.3998C33.5666 36.52 33.5666 39.7927 34.37 42.9128C37.87 52.0408 50.7745 55.9923 60.179 54.1023C63.5753 53.2406 66.7244 51.6002 69.377 49.3108C73.577 45.8108 73.717 40.9878 73.612 35.6363C73.402 21.0553 62.909 19.5503 61.054 18.0103" fill="#040200"/>
<path fill-rule="evenodd" clip-rule="evenodd" d="M45.8395 32.2836C45.3495 35.7836 43.1445 41.5166 47.1695 43.5431C48.421 43.97 49.7266 44.2174 51.0475 44.2781C52.9184 44.6126 54.8172 44.765 56.7175 44.7331C58.2947 44.8516 59.8628 44.4071 61.1432 43.4785C62.4235 42.55 63.3332 41.1975 63.7105 39.6616C63.8596 37.0821 63.5877 34.4956 62.9055 32.0036C61.9955 25.0106 60.1755 25.6406 49.966 26.0221C45.416 25.7071 46.081 30.6421 45.836 32.2871M48.4925 28.0556C49.9975 28.5456 58.1455 28.0556 59.1955 29.2456C60.2455 40.1551 61.467 41.4151 51.464 40.4701C50.729 40.4701 48.5275 40.4701 48.3525 40.1901C47.0225 37.8801 49.2275 29.4906 48.4925 28.0556Z" fill="#040200"/>
</svg>
